<svg xmlns="http://www.w3.org/2000/svg" width="500" height="500" viewBox="0 0 500 500" version="1.1"><path d="M 234.762 23.707 C 236.006 23.946, 237.806 23.937, 238.762 23.687 C 239.718 23.437, 238.700 23.241, 236.500 23.252 C 234.300 23.263, 233.518 23.468, 234.762 23.707 M 260.250 23.689 C 261.212 23.941, 262.788 23.941, 263.750 23.689 C 264.712 23.438, 263.925 23.232, 262 23.232 C 260.075 23.232, 259.288 23.438, 260.250 23.689 M 87.971 90.750 L 81.500 97.500 88.250 91.029 C 94.520 85.018, 95.457 84, 94.721 84 C 94.568 84, 91.530 87.037, 87.971 90.750 M 244.603 152.060 C 239.133 158.561, 230.245 195.996, 220.520 253.500 C 213.455 295.273, 210.705 307, 207.970 307 C 205.405 307, 199.538 288.593, 193.468 261.500 C 188.489 239.281, 186.950 233.533, 183.827 225.500 C 177.522 209.279, 172.251 205.111, 164.230 210.001 C 160.374 212.352, 154.221 221.500, 150.990 229.684 C 146.952 239.914, 139.936 252.825, 136.690 255.999 C 132.820 259.782, 130.130 260.528, 125.667 259.055 C 122.391 257.974, 113.870 249.861, 109.500 243.663 C 106.019 238.725, 99.673 234.996, 94.820 235.035 C 88.457 235.088, 84.929 237.494, 76.111 247.796 C 67.058 258.374, 64.316 258.839, 49.500 252.309 C 42.436 249.196, 40.447 248.767, 32.500 248.642 L 23.500 248.500 23.202 253.619 L 22.905 258.738 30.846 259.197 C 37.474 259.581, 40.054 260.283, 46.440 263.438 C 53.059 266.708, 55.065 267.229, 61.296 267.297 C 70.895 267.401, 74.484 265.423, 84.325 254.603 C 89.308 249.126, 92.898 246, 94.207 246 C 96.233 246, 98.964 248.533, 110.194 260.829 C 117.297 268.605, 123.044 271.410, 130.595 270.784 C 140.633 269.951, 148.158 261.843, 157.068 242.262 C 163.474 228.185, 167.418 220.694, 168.638 220.287 C 169.266 220.078, 171.169 223.256, 172.888 227.384 C 176.021 234.913, 178.841 245.396, 185.452 274.096 C 194.403 312.954, 201.080 323.852, 212.590 318.390 C 219.734 315, 222.250 306.477, 230.417 257.987 C 236.969 219.084, 239.553 206.193, 246.551 177.500 C 248.988 167.510, 250.891 161.911, 250.970 164.500 C 250.986 165.051, 251.677 168.651, 252.505 172.500 C 254.761 182.998, 258.450 201.520, 261.964 220 C 272.350 274.616, 275.853 288.823, 281.875 300.752 C 285.600 308.131, 288.989 311, 293.981 311 C 302.986 311, 310.039 297.843, 316.497 269 C 323.873 236.057, 326.062 227.748, 329.218 220.727 C 330.398 218.102, 331.806 216.102, 332.348 216.283 C 334.092 216.864, 338.757 227.109, 341.982 237.442 C 350.201 263.777, 358.677 272.882, 372.155 269.854 C 378.496 268.429, 383.234 263.952, 392.043 251.057 C 396.555 244.452, 401.185 238.781, 402.584 238.144 C 405.844 236.658, 407.949 238.059, 414.500 246.072 C 423.704 257.331, 429.192 259, 457.014 259 C 479.107 259, 478.096 259.542, 477.840 247.816 C 477.752 243.792, 477.498 241.963, 477.277 243.750 L 476.873 247 454.823 247 C 428.969 247, 429.110 247.044, 419.839 236.035 C 407.482 221.361, 398.552 222.742, 385.863 241.290 C 376.242 255.353, 372.552 259, 367.945 259 C 362.135 259, 359.228 254.701, 353.677 237.900 C 348.339 221.742, 344.394 213.062, 339.974 207.750 C 337.245 204.470, 336.310 204, 332.505 204 C 328.652 204, 327.756 204.467, 324.653 208.092 C 318.585 215.182, 314.167 228.192, 308.556 255.500 C 303.346 280.855, 297.474 299, 294.478 299 C 291.862 299, 288.495 291.437, 284.636 276.887 C 282.090 267.291, 272.852 222.075, 269.029 200.500 C 262.386 163.007, 259.445 152.379, 255.062 150.033 C 251.334 148.038, 247.335 148.813, 244.603 152.060 M 424.845 300.139 C 407.332 302.147, 386.996 309.253, 373.439 318.103 C 364.739 323.783, 350.066 337.978, 340.469 350 C 327.327 366.464, 324.541 369.610, 312.576 381.503 C 292.403 401.554, 276.878 410.698, 249.813 418.468 L 238.827 421.622 250.082 423.883 C 270.066 427.897, 284.389 434.303, 296.880 444.813 C 300.521 447.877, 303.745 450.736, 304.044 451.167 C 304.342 451.597, 307.862 455.315, 311.864 459.428 L 319.141 466.906 326.321 464.335 C 397.405 438.873, 450.265 381.697, 469.478 309.486 C 470.865 304.274, 472 299.782, 472 299.504 C 472 298.671, 433.086 299.194, 424.845 300.139 M 88.500 411 C 91.209 413.750, 93.650 416, 93.925 416 C 94.200 416, 92.209 413.750, 89.500 411 C 86.791 408.250, 84.350 406, 84.075 406 C 83.800 406, 85.791 408.250, 88.500 411 M 245.750 477.723 C 247.537 477.945, 250.463 477.945, 252.250 477.723 C 254.037 477.502, 252.575 477.320, 249 477.320 C 245.425 477.320, 243.963 477.502, 245.750 477.723" stroke="none" fill="#33b4b4" fill-rule="evenodd"/><path d="M 235 23.705 C 214.525 24.953, 187.851 30.870, 168.383 38.482 C 139.177 49.902, 115.014 65.494, 91.647 88 C 50.410 127.717, 27.050 178.937, 23.464 237.500 L 22.791 248.500 32.145 248.621 C 40.548 248.730, 42.314 249.103, 49.500 252.289 C 64.292 258.846, 67.052 258.380, 76.111 247.796 C 84.929 237.494, 88.457 235.088, 94.820 235.035 C 99.673 234.996, 106.019 238.725, 109.500 243.663 C 113.870 249.861, 122.391 257.974, 125.667 259.055 C 130.130 260.528, 132.820 259.782, 136.690 255.999 C 139.936 252.825, 146.952 239.914, 150.990 229.684 C 154.221 221.500, 160.374 212.352, 164.230 210.001 C 172.251 205.111, 177.522 209.279, 183.827 225.500 C 186.950 233.533, 188.489 239.281, 193.468 261.500 C 199.538 288.593, 205.405 307, 207.970 307 C 210.705 307, 213.455 295.273, 220.520 253.500 C 230.245 195.996, 239.133 158.561, 244.603 152.060 C 247.335 148.813, 251.334 148.038, 255.062 150.033 C 259.445 152.379, 262.386 163.007, 269.029 200.500 C 272.852 222.075, 282.090 267.291, 284.636 276.887 C 288.495 291.437, 291.862 299, 294.478 299 C 297.474 299, 303.346 280.855, 308.556 255.500 C 314.167 228.192, 318.585 215.182, 324.653 208.092 C 327.756 204.467, 328.652 204, 332.505 204 C 336.310 204, 337.245 204.470, 339.974 207.750 C 344.394 213.062, 348.339 221.742, 353.677 237.900 C 359.228 254.701, 362.135 259, 367.945 259 C 372.552 259, 376.242 255.353, 385.863 241.290 C 398.552 222.742, 407.482 221.361, 419.839 236.035 C 429.121 247.057, 428.939 247, 455.038 247 L 477.304 247 476.667 236.596 C 474.100 194.635, 460.580 155.028, 437.208 121 C 421.993 98.848, 400.118 77.392, 376.717 61.665 C 335.565 34.010, 285.583 20.622, 235 23.705 M 248.688 169.176 C 247.295 174.134, 246.300 178.186, 242.535 194.250 C 239.044 209.142, 235.533 227.608, 230.417 257.987 C 222.250 306.477, 219.734 315, 212.590 318.390 C 201.080 323.852, 194.403 312.954, 185.452 274.096 C 178.841 245.396, 176.021 234.913, 172.888 227.384 C 171.169 223.256, 169.266 220.078, 168.638 220.287 C 167.418 220.694, 163.474 228.185, 157.068 242.262 C 148.158 261.843, 140.633 269.951, 130.595 270.784 C 123.044 271.410, 117.297 268.605, 110.194 260.829 C 98.964 248.533, 96.233 246, 94.207 246 C 92.898 246, 89.308 249.126, 84.325 254.603 C 74.484 265.423, 70.895 267.401, 61.296 267.297 C 55.065 267.229, 53.059 266.708, 46.440 263.438 C 40.056 260.284, 37.473 259.581, 30.853 259.198 L 22.917 258.738 23.520 265.619 C 27.296 308.724, 38.843 342.969, 60.693 375.858 C 92.504 423.743, 140.543 457.172, 197.318 470.932 C 232.829 479.539, 275.307 478.767, 311.235 468.863 L 318.970 466.731 311.779 459.340 C 307.823 455.275, 304.342 451.597, 304.044 451.167 C 303.745 450.736, 300.521 447.877, 296.880 444.813 C 284.389 434.303, 270.066 427.897, 250.082 423.883 L 238.827 421.622 249.813 418.468 C 276.878 410.698, 292.403 401.554, 312.576 381.503 C 324.541 369.610, 327.327 366.464, 340.469 350 C 350.066 337.978, 364.739 323.783, 373.439 318.103 C 387.595 308.862, 407.081 302.216, 426.303 300.072 C 431.593 299.483, 443.992 299, 453.857 299 L 471.792 299 473.366 290.250 C 474.695 282.866, 476.997 263.479, 477.001 259.644 C 477.002 258.815, 471.842 258.586, 458.251 258.812 C 429.930 259.284, 423.855 257.515, 414.500 246.072 C 407.949 238.059, 405.844 236.658, 402.584 238.144 C 401.185 238.781, 396.555 244.452, 392.043 251.057 C 383.234 263.952, 378.496 268.429, 372.155 269.854 C 358.677 272.882, 350.201 263.777, 341.982 237.442 C 338.757 227.109, 334.092 216.864, 332.348 216.283 C 331.806 216.102, 330.398 218.102, 329.218 220.727 C 326.062 227.748, 323.873 236.057, 316.497 269 C 310.039 297.843, 302.986 311, 293.981 311 C 288.989 311, 285.600 308.131, 281.875 300.752 C 275.853 288.823, 272.350 274.616, 261.964 220 C 256.420 190.843, 251.062 164.746, 250.503 164.176 C 250.328 163.998, 249.512 166.248, 248.688 169.176" stroke="none" fill="#067989" fill-rule="evenodd"/></svg>